# xmcd
#
# Track frame offsets:
#	150
#	6055
#	26616
#	44730
#	63836
#	88828
#	113995
#	148490
#	178341
#	208616
#	234041
#	265552
#	286705
#	303518
#
# Disc length: 4410 seconds
#
# Revision: 1
# Processed by: cddbd v1.5.2PL0 Copyright (c) Steve Scherf et al.
# Submitted via: EZCDAudioConverter 1.0.8.1
#
DISCID=c411380e
DTITLE=House Compilation Vol.1.
DYEAR=1998
DGENRE=Electronic -  House, Techno 
TTITLE0=Entertainment Studió 1998 - Bomba intró
TTITLE1=Groovehouse - Absolute power
TTITLE2=Skyland - Érezd a ritmust ( Radio Cut )
TTITLE3=Newtex - Traitor
TTITLE4=Abstrax and DJ Grega - Welcome to starlight ( Breakbeat Mix )
TTITLE5=Dj-M-SKY - Drop da mike ( Original )
TTITLE6=D.S.E - Forward
TTITLE7=Sonic Age - Delight  ( Overdose Mix )
TTITLE8=TCX - Stelt ( Sunshine Mix )
TTITLE9=B-Side Project - Bitch
TTITLE10=Hell'oh - Singery
TTITLE11=Splash Inc - Chagne
TTITLE12=X-Sliders - Intoxication
TTITLE13=Stack - Leaving the line ( Tcx Remix )
EXTD=
EXTT0=
EXTT1=
EXTT2=
EXTT3=
EXTT4=
EXTT5=
EXTT6=
EXTT7=
EXTT8=
EXTT9=
EXTT10=
EXTT11=
EXTT12=
EXTT13=
PLAYORDER=
